<?xml version="1.0" encoding="iso-8859-1"?>
<!-- Uploaded to: SVG Repo, www.svgrepo.com, Generator: SVG Repo Mixer Tools -->
<!DOCTYPE svg PUBLIC "-//W3C//DTD SVG 1.1//EN" "http://www.w3.org/Graphics/SVG/1.1/DTD/svg11.dtd">
<svg fill="#000000" height="800px" width="800px" version="1.1" id="Capa_1" xmlns="http://www.w3.org/2000/svg" xmlns:xlink="http://www.w3.org/1999/xlink" 
	 viewBox="0 0 470 470" xml:space="preserve">
<g>
	<path d="M266.271,50.959V31.271C266.271,14.028,252.243,0,235,0s-31.271,14.028-31.271,31.271v19.689
		C100.98,66.217,24.319,154.634,24.319,259.319C24.319,375.489,118.83,470,235,470s210.681-94.511,210.681-210.681
		C445.681,154.634,369.02,66.217,266.271,50.959z M235,455c-107.899,0-195.681-87.782-195.681-195.681
		c0-99.312,74.278-182.859,172.778-194.339c3.781-0.441,6.632-3.644,6.632-7.45v-26.26C218.729,22.299,226.028,15,235,15
		s16.271,7.299,16.271,16.271v26.26c0,3.806,2.851,7.009,6.632,7.45c98.5,11.48,172.778,95.028,172.778,194.339
		C430.681,367.218,342.899,455,235,455z"/>
	<path d="M235,39.271c4.411,0,8-3.588,8-8s-3.588-8-8-8s-8,3.588-8,8S230.589,39.271,235,39.271z"/>
	<path d="M408.168,266.847c-4.125-0.354-7.76,2.701-8.116,6.828C392.736,358.53,320.237,425,235,425
		c-91.356,0-165.681-74.324-165.681-165.681S143.644,93.639,235,93.639c85.237,0,157.736,66.47,165.052,151.324
		c0.356,4.126,3.984,7.185,8.116,6.828c4.127-0.355,7.184-3.99,6.828-8.116c-3.866-44.841-24.32-86.444-57.595-117.144
		C323.926,95.648,280.457,78.639,235,78.639c-99.627,0-180.681,81.053-180.681,180.68S135.373,440,235,440
		c45.457,0,88.926-17.009,122.401-47.893c33.275-30.7,53.729-72.302,57.595-117.144
		C415.352,270.837,412.295,267.203,408.168,266.847z"/>
	<path d="M209.986,110.716c-25.451,4.271-49.567,15.175-69.741,31.533c-3.217,2.609-3.711,7.332-1.102,10.549
		c1.482,1.828,3.647,2.776,5.83,2.776c1.66,0,3.33-0.548,4.719-1.674c18.167-14.73,39.874-24.548,62.776-28.391
		c4.085-0.686,6.841-4.553,6.155-8.638C217.939,112.787,214.075,110.026,209.986,110.716z"/>
	<path d="M117.927,164.562c-21.672,26.727-33.608,60.379-33.608,94.757c0,4.142,3.358,7.5,7.5,7.5s7.5-3.358,7.5-7.5
		c0-30.949,10.746-61.246,30.259-85.31c2.608-3.217,2.115-7.94-1.102-10.549C125.26,160.852,120.537,161.344,117.927,164.562z"/>
</g>
</svg>