<svg xmlns="http://www.w3.org/2000/svg" viewBox="0 0 100 100" preserveAspectRatio="xMidYMid" style="shape-rendering: auto; display: block; background: rgba(255, 255, 255, 0); --darkreader-inline-bgcolor: rgba(24, 26, 27, 0); --darkreader-inline-bgimage: none;" width="260" height="260" data-darkreader-inline-bgcolor="" data-darkreader-inline-bgimage="" xmlns:xlink="http://www.w3.org/1999/xlink"><g><g transform="rotate(0 50 50)">
  <rect fill="#a482ff" height="14" width="5" ry="0" rx="0" y="23" x="47.5">
    <animate repeatCount="indefinite" begin="-0.5543237250554323s" dur="0.6097560975609756s" keyTimes="0;1" values="1;0" attributeName="opacity"></animate>
  </rect>
</g><g transform="rotate(32.72727272727273 50 50)">
  <rect fill="#a482ff" height="14" width="5" ry="0" rx="0" y="23" x="47.5">
    <animate repeatCount="indefinite" begin="-0.49889135254988903s" dur="0.6097560975609756s" keyTimes="0;1" values="1;0" attributeName="opacity"></animate>
  </rect>
</g><g transform="rotate(65.45454545454545 50 50)">
  <rect fill="#a482ff" height="14" width="5" ry="0" rx="0" y="23" x="47.5">
    <animate repeatCount="indefinite" begin="-0.4434589800443458s" dur="0.6097560975609756s" keyTimes="0;1" values="1;0" attributeName="opacity"></animate>
  </rect>
</g><g transform="rotate(98.18181818181819 50 50)">
  <rect fill="#a482ff" height="14" width="5" ry="0" rx="0" y="23" x="47.5">
    <animate repeatCount="indefinite" begin="-0.3880266075388026s" dur="0.6097560975609756s" keyTimes="0;1" values="1;0" attributeName="opacity"></animate>
  </rect>
</g><g transform="rotate(130.9090909090909 50 50)">
  <rect fill="#a482ff" height="14" width="5" ry="0" rx="0" y="23" x="47.5">
    <animate repeatCount="indefinite" begin="-0.33259423503325936s" dur="0.6097560975609756s" keyTimes="0;1" values="1;0" attributeName="opacity"></animate>
  </rect>
</g><g transform="rotate(163.63636363636363 50 50)">
  <rect fill="#a482ff" height="14" width="5" ry="0" rx="0" y="23" x="47.5">
    <animate repeatCount="indefinite" begin="-0.27716186252771613s" dur="0.6097560975609756s" keyTimes="0;1" values="1;0" attributeName="opacity"></animate>
  </rect>
</g><g transform="rotate(196.36363636363637 50 50)">
  <rect fill="#a482ff" height="14" width="5" ry="0" rx="0" y="23" x="47.5">
    <animate repeatCount="indefinite" begin="-0.2217294900221729s" dur="0.6097560975609756s" keyTimes="0;1" values="1;0" attributeName="opacity"></animate>
  </rect>
</g><g transform="rotate(229.0909090909091 50 50)">
  <rect fill="#a482ff" height="14" width="5" ry="0" rx="0" y="23" x="47.5">
    <animate repeatCount="indefinite" begin="-0.16629711751662968s" dur="0.6097560975609756s" keyTimes="0;1" values="1;0" attributeName="opacity"></animate>
  </rect>
</g><g transform="rotate(261.8181818181818 50 50)">
  <rect fill="#a482ff" height="14" width="5" ry="0" rx="0" y="23" x="47.5">
    <animate repeatCount="indefinite" begin="-0.11086474501108645s" dur="0.6097560975609756s" keyTimes="0;1" values="1;0" attributeName="opacity"></animate>
  </rect>
</g><g transform="rotate(294.54545454545456 50 50)">
  <rect fill="#a482ff" height="14" width="5" ry="0" rx="0" y="23" x="47.5">
    <animate repeatCount="indefinite" begin="-0.055432372505543226s" dur="0.6097560975609756s" keyTimes="0;1" values="1;0" attributeName="opacity"></animate>
  </rect>
</g><g transform="rotate(327.27272727272725 50 50)">
  <rect fill="#a482ff" height="14" width="5" ry="0" rx="0" y="23" x="47.5">
    <animate repeatCount="indefinite" begin="0s" dur="0.6097560975609756s" keyTimes="0;1" values="1;0" attributeName="opacity"></animate>
  </rect>
</g><g></g></g><!-- [ldio] generated by https://loading.io --></svg>