<?xml version="1.0" encoding="UTF-8"?>
<svg xmlns="http://www.w3.org/2000/svg" id="Layer_1" data-name="Layer 1" viewBox="0 0 24 24">
  <path d="M12,0C7.96,0,4.211,2.066,2,5.413V.5c0-.276-.224-.5-.5-.5s-.5,.224-.5,.5V5.5c0,.827,.673,1.5,1.5,1.5H7.5c.276,0,.5-.224,.5-.5s-.224-.5-.5-.5H2.808C4.831,2.909,8.282,1,12,1c6.065,0,11,4.935,11,11s-4.935,11-11,11c-5.91,0-10.737-4.621-10.989-10.521-.013-.276-.21-.502-.521-.478-.275,.012-.49,.245-.479,.521,.275,6.437,5.542,11.479,11.989,11.479,6.617,0,12-5.383,12-12S18.617,0,12,0Z"/>
  <path d="M11.5,6c-.276,0-.5,.224-.5,.5v5.5c0,.133,.053,.26,.146,.354l3,3c.098,.098,.226,.146,.354,.146s.256-.049,.354-.146c.195-.195,.195-.512,0-.707l-2.854-2.854V6.5c0-.276-.224-.5-.5-.5Z"/>
</svg>
